<?xml version="1.0" encoding="UTF-8"?>
<svg xmlns="http://www.w3.org/2000/svg" xmlns:xlink="http://www.w3.org/1999/xlink" viewBox="0 0 715.11 326.89">
  <defs>
    <style>
      .cls-1 {
        fill: none;
      }

      .cls-2 {
        fill: #30353a;
      }

      .cls-3 {
        isolation: isolate;
      }

      .cls-4 {
        mix-blend-mode: multiply;
      }

      .cls-5 {
        fill: #fff;
      }

      .cls-6 {
        fill: url(#Nepojmenovaný_přechod_6);
      }

      .cls-7 {
        fill: url(#Nepojmenovaný_přechod_5);
      }

      .cls-8 {
        fill: url(#Nepojmenovaný_přechod_4);
      }

      .cls-9 {
        clip-path: url(#clippath);
      }
    </style>
    <clipPath id="clippath">
      <path class="cls-1" d="M264.9,236.62c14.87-20.57,23.63-45.85,23.63-73.17,0-69.09-56.01-125.09-125.09-125.09s-125.09,56-125.09,125.09,56.01,125.08,125.09,125.08c27.32,0,52.6-8.76,73.17-23.63l-36.15-36.15c-10.93,6.22-23.57,9.78-37.02,9.78-41.4,0-75.09-33.68-75.09-75.08s33.69-75.09,75.09-75.09,75.09,33.68,75.09,75.09c0,13.45-3.56,26.09-9.78,37.02l36.15,36.15Z"/>
    </clipPath>
    <radialGradient id="Nepojmenovaný_přechod_6" data-name="Nepojmenovaný přechod 6" cx="-289.21" cy="-287.99" fx="-289.21" fy="-287.99" r="1" gradientTransform="translate(-114544.43 -15825.64) rotate(-127.14) scale(284.08 -284.08)" gradientUnits="userSpaceOnUse">
      <stop offset=".51" stop-color="#64a180"/>
      <stop offset="1" stop-color="#64a180" stop-opacity="0"/>
    </radialGradient>
    <radialGradient id="Nepojmenovaný_přechod_5" data-name="Nepojmenovaný přechod 5" cx="-283.62" cy="-294.05" fx="-283.62" fy="-294.05" r="1" gradientTransform="translate(70106.02 -49519.72) rotate(10.74) scale(210.03 -210.03)" gradientUnits="userSpaceOnUse">
      <stop offset="0" stop-color="#fcb011"/>
      <stop offset="1" stop-color="#fcb011" stop-opacity="0"/>
    </radialGradient>
    <radialGradient id="Nepojmenovaný_přechod_4" data-name="Nepojmenovaný přechod 4" cx="-288" cy="-294.57" fx="-288" fy="-294.57" r="1" gradientTransform="translate(8980.54 -77645.79) rotate(-37.79) scale(190.4 -190.4)" gradientUnits="userSpaceOnUse">
      <stop offset="0" stop-color="#30353a"/>
      <stop offset="1" stop-color="#30353a" stop-opacity="0"/>
    </radialGradient>
  </defs>
  <g class="cls-3">
    <g id="Vrstva_2" data-name="Vrstva 2">
      <g id="Vrstva_1-2" data-name="Vrstva 1">
        <g>
          <g>
            <path class="cls-2" d="M368.29,105.94h-9.81l-18.72,46.1h10.38l3.76-9.67h18.59l3.69,9.67h10.83l-18.71-46.1h0ZM357.01,134.41l1.86-4.91c1.46-3.89,3.12-8.47,4.32-11.98h.13c1.21,3.5,2.87,8.09,4.21,11.72l1.91,5.16h-12.42Z"/>
            <path class="cls-2" d="M429.8,105.94v17.14c0,4.46.06,8.91.13,13.3l-.13.08c-2.87-4.02-5.67-7.9-8.67-11.91l-13.8-18.6h-9.56v46.1h9.75v-17.13c0-4.46-.06-8.91-.13-13.31l.13-.06c2.86,4.02,5.67,7.9,8.65,11.91l13.82,18.59h9.54v-46.1h-9.73Z"/>
            <path class="cls-2" d="M479.27,132.56c6.1-1.98,9.36-6.81,9.36-12.74,0-5.28-2.16-8.72-5.55-10.83-3.69-2.29-8.84-3.06-14.33-3.06h-14.45v46.1h10.13v-18.21h4.52l11.65,18.21h11.65l-12.99-19.48ZM475.89,125.16c-1.52.77-3.63,1.09-6.36,1.09h-5.09v-11.46h3.88c3.5,0,5.99.39,7.58,1.21,1.84.95,2.61,2.35,2.61,4.52s-.89,3.76-2.61,4.65h0Z"/>
            <path class="cls-2" d="M512.38,143.19v-10.96h15.79v-8.41h-15.79v-9.04h18.32v-8.86h-28.46v46.1h29.16v-8.84h-19.03Z"/>
            <path class="cls-2" d="M574.97,105.94l-7.58,20.2c-1.6,4.26-3.12,8.39-4.58,12.61h-.13c-1.4-4.15-2.92-8.41-4.45-12.54l-7.39-20.26h-10.88l17.64,46.1h10.19l17.57-46.1h-10.38Z"/>
            <path class="cls-2" d="M614.89,105.94h-9.81l-18.72,46.1h10.38l3.76-9.67h18.59l3.69,9.67h10.83l-18.72-46.1ZM603.62,134.41l1.84-4.91c1.46-3.89,3.12-8.47,4.32-11.98h.13c1.21,3.5,2.86,8.09,4.2,11.72l1.91,5.16h-12.41,0Z"/>
            <path class="cls-2" d="M361.99,192.88c-5.55-1.84-9.81-2.17-9.81-6.24,0-3.05,2.47-4.32,5.92-4.32s9.23,1.4,14.13,4.46v-10.01c-4.02-2.15-9.54-3.31-14.07-3.31-9.68,0-16.17,5.35-16.17,13.94,0,8.02,5.73,11.14,12.09,13.25,5.92,1.91,10.25,2.29,10.25,6.55,0,3.44-2.74,4.91-6.44,4.91s-9.8-1.46-14.7-4.76v10.24c4.32,2.23,9.99,3.38,14.58,3.38,9.93,0,16.75-5.41,16.75-14.39,0-8.15-5.61-11.39-12.54-13.7h.01Z"/>
            <path class="cls-2" d="M408.85,173.46c-13.69,0-24.07,10.31-24.07,23.75s10.38,23.75,24.07,23.75,24.07-10.32,24.07-23.75-10.39-23.75-24.07-23.75ZM408.85,211.8c-7.96,0-13.94-6.44-13.94-14.59s5.98-14.59,13.94-14.59,13.94,6.44,13.94,14.59-5.98,14.59-13.94,14.59Z"/>
            <path class="cls-2" d="M455.77,211.42v-37.25h-10.12v46.09h30.3v-8.84h-20.18Z"/>
            <path class="cls-2" d="M517.35,174.17v23.68c0,4.84-.58,8.02-1.98,10.19-1.52,2.36-4.13,3.83-8.15,3.83-4.34,0-7.01-1.78-8.41-4.01-1.34-2.17-1.79-5.16-1.79-10.07v-23.61h-10.12v24c0,6.57.95,11.59,3.43,15.28,3.26,4.78,9.24,7.52,16.62,7.52s13.31-2.74,16.56-7.39c2.61-3.69,3.57-8.72,3.57-15.65v-23.75h-9.73Z"/>
            <path class="cls-2" d="M538.17,174.17v8.84h14.9v37.25h10.13v-37.25h14.9v-8.84h-39.93Z"/>
            <path class="cls-2" d="M589.61,174.17v46.09h10.13v-46.09h-10.13Z"/>
            <path class="cls-2" d="M636.54,173.46c-13.69,0-24.07,10.31-24.07,23.75s10.38,23.75,24.07,23.75,24.07-10.32,24.07-23.75-10.39-23.75-24.07-23.75ZM636.54,211.8c-7.96,0-13.95-6.44-13.95-14.59s5.98-14.59,13.95-14.59,13.94,6.44,13.94,14.59-5.98,14.59-13.94,14.59Z"/>
            <path class="cls-2" d="M705.36,174.17v17.13c0,4.46.06,8.91.13,13.3l-.13.08c-2.86-4.02-5.66-7.9-8.65-11.91l-13.82-18.59h-9.54v46.09h9.73v-17.13c0-4.46-.06-8.91-.13-13.3l.13-.08c2.87,4.02,5.67,7.9,8.67,11.91l13.82,18.59h9.54v-46.09h-9.75Z"/>
          </g>
          <path class="cls-5" d="M264.9,236.62c14.87-20.57,23.63-45.85,23.63-73.17,0-69.09-56.01-125.09-125.09-125.09s-125.09,56-125.09,125.09,56.01,125.08,125.09,125.08c27.32,0,52.6-8.76,73.17-23.63l-36.15-36.15c-10.93,6.22-23.57,9.78-37.02,9.78-41.4,0-75.09-33.68-75.09-75.08s33.69-75.09,75.09-75.09,75.09,33.68,75.09,75.09c0,13.45-3.56,26.09-9.78,37.02l36.15,36.15Z"/>
          <g class="cls-9">
            <g>
              <path class="cls-6" d="M294.24,326.89L0,294.24,32.65,0l294.24,32.65-32.65,294.24Z"/>
              <path class="cls-7" d="M294.24,326.89L0,294.24,32.65,0l294.24,32.65-32.65,294.24Z"/>
              <g class="cls-4">
                <path class="cls-8" d="M294.24,326.89L0,294.24,32.65,0l294.24,32.65-32.65,294.24Z"/>
              </g>
            </g>
          </g>
        </g>
      </g>
    </g>
  </g>
</svg>